<?xml version="1.0" encoding="UTF-8" standalone="no"?>
<!-- Created with Inkscape (http://www.inkscape.org/) -->

<svg
   xmlns:dc="http://purl.org/dc/elements/1.1/"
   xmlns:cc="http://creativecommons.org/ns#"
   xmlns:rdf="http://www.w3.org/1999/02/22-rdf-syntax-ns#"
   xmlns:svg="http://www.w3.org/2000/svg"
   xmlns="http://www.w3.org/2000/svg"
   xmlns:sodipodi="http://sodipodi.sourceforge.net/DTD/sodipodi-0.dtd"
   xmlns:inkscape="http://www.inkscape.org/namespaces/inkscape"
   width="115.49116mm"
   height="111.2839mm"
   viewBox="0 0 115.49115 111.2839"
   version="1.1"
   id="svg8"
   inkscape:version="0.92.4 (unknown)"
   sodipodi:docname="Logo_v3.svg">
  <defs
     id="defs2" />
  <sodipodi:namedview
     id="base"
     pagecolor="#ffffff"
     bordercolor="#666666"
     borderopacity="1.0"
     inkscape:pageopacity="0.0"
     inkscape:pageshadow="2"
     inkscape:zoom="1.4"
     inkscape:cx="224.98602"
     inkscape:cy="220.10648"
     inkscape:document-units="mm"
     inkscape:current-layer="layer1"
     showgrid="false"
     showguides="true"
     inkscape:guide-bbox="true"
     inkscape:snap-bbox="false"
     inkscape:window-width="1920"
     inkscape:window-height="986"
     inkscape:window-x="-11"
     inkscape:window-y="-11"
     inkscape:window-maximized="1">
    <sodipodi:guide
       position="66.726236,-12.939383"
       orientation="0,1"
       id="guide14"
       inkscape:locked="false"
       inkscape:label=""
       inkscape:color="rgb(0,0,255)" />
  </sodipodi:namedview>
  <metadata
     id="metadata5">
    <rdf:RDF>
      <cc:Work
         rdf:about="">
        <dc:format>image/svg+xml</dc:format>
        <dc:type
           rdf:resource="http://purl.org/dc/dcmitype/StillImage" />
        <dc:title></dc:title>
      </cc:Work>
    </rdf:RDF>
  </metadata>
  <g
     inkscape:label="Capa 1"
     inkscape:groupmode="layer"
     id="layer1"
     transform="translate(-10.758881,-184.116)">
    <path
       id="path4118-1"
       style="fill:#b3b3b3;stroke-width:0.26458332"
       d="m 50.587566,210.68959 c -0.048,0.0177 -0.09598,0.0354 -0.144388,0.0522 l -5.9e-5,-0.19688 z m -18.967843,18.45004 0.268203,0.26821 c -1.715308,4.14636 -2.602047,8.58852 -2.611199,13.07569 9e-6,18.99628 15.399528,34.39582 34.395811,34.39583 18.966665,-0.001 34.352803,-15.35584 34.393295,-34.32244 l 18.523717,-0.0734 c -0.0152,6.93523 -1.39354,13.79983 -4.05662,20.20341 l -4.88444,-2.02313 c -2.38728,5.78172 -5.89084,11.03617 -10.309548,15.46365 l 3.739818,3.73982 c -4.918773,4.92726 -10.761782,8.83513 -17.19375,11.50008 l -2.024682,-4.88756 c -5.715099,2.36619 -11.836667,3.59545 -18.022175,3.62045 v 5.29166 c -0.05503,0.003 -0.110303,0.005 -0.16541,0.008 -6.906978,-0.0143 -13.744381,-1.38066 -20.126405,-4.02197 l 2.023151,-4.88496 C 39.791568,284.11994 34.536935,280.63343 30.104805,276.2321 l -3.739323,3.7393 c -4.931613,-4.9015 -8.848873,-10.72689 -11.527917,-17.14316 l 4.887252,-2.02443 c -2.423486,-5.80403 -3.673293,-12.03062 -3.677272,-18.32032 l 0.003,-0.0532 -5.291664,-2e-5 c 0.0221,-6.93893 1.408695,-13.80578 4.080894,-20.20959 z m 94.630317,-12.59734 -16.13567,21.66934 -2.75981,-6.66201 -22.59439,9.3588 c 0.04589,0.52387 0.0723,1.04926 0.0791,1.57509 6e-6,11.69004 -9.476643,21.16669 -21.166664,21.16668 -11.690024,0 -21.166663,-9.47664 -21.166673,-21.16668 10e-4,-3.31349 0.780082,-6.58045 2.274288,-9.53791 L 33.514495,221.53251 c -1.112023,0.30242 -2.258747,0.45826 -3.411133,0.46354 -7.306273,0 -13.229161,-5.92289 -13.229174,-13.22915 -7e-6,-7.30629 5.922884,-13.22918 13.229172,-13.22918 7.306273,-1e-5 13.229156,5.9229 13.229171,13.22917 -0.002,1.15478 -0.154924,2.30436 -0.455279,3.41942 l 11.272386,11.41981 c 0.937962,-0.47597 1.910129,-0.88136 2.908562,-1.21234 l -0.0695,-17.11109 -3.968749,-1e-5 -10e-7,-21.16665 21.166664,-3e-5 2e-6,21.16668 -3.968746,1e-5 0.0695,17.12247 c 3.651933,1.19841 6.908612,3.36859 9.420611,6.27765 l 22.584589,-9.35467 -2.774783,-6.69868 z"
       inkscape:connector-curvature="0"
       sodipodi:nodetypes="cccccccccccccccccccccccccccccccccccsccccssccccccccccccccc" />
  </g>
</svg>
