<?xml version="1.0" encoding="UTF-8" standalone="no"?>
<svg
   xmlns:dc="http://purl.org/dc/elements/1.1/"
   xmlns:cc="http://creativecommons.org/ns#"
   xmlns:rdf="http://www.w3.org/1999/02/22-rdf-syntax-ns#"
   xmlns:svg="http://www.w3.org/2000/svg"
   xmlns="http://www.w3.org/2000/svg"
   xmlns:sodipodi="http://sodipodi.sourceforge.net/DTD/sodipodi-0.dtd"
   xmlns:inkscape="http://www.inkscape.org/namespaces/inkscape"
   version="1.1"
   id="svg10"
   width="633.87939"
   height="684.36066"
   viewBox="0 0 633.87936 684.36062"
   sodipodi:docname="redpri_logo.svg"
   inkscape:version="1.0.1 (3bc2e813f5, 2020-09-07)">
  <metadata
     id="metadata16">
    <rdf:RDF>
      <cc:Work
         rdf:about="">
        <dc:format>image/svg+xml</dc:format>
        <dc:type
           rdf:resource="http://purl.org/dc/dcmitype/StillImage" />
        <dc:title></dc:title>
      </cc:Work>
    </rdf:RDF>
  </metadata>
  <defs
     id="defs14" />
  <sodipodi:namedview
     pagecolor="#ffffff"
     bordercolor="#666666"
     borderopacity="1"
     objecttolerance="10"
     gridtolerance="10"
     guidetolerance="10"
     inkscape:pageopacity="0"
     inkscape:pageshadow="2"
     inkscape:window-width="2880"
     inkscape:window-height="1526"
     id="namedview12"
     showgrid="false"
     inkscape:zoom="1.259645"
     inkscape:cx="195.15351"
     inkscape:cy="410.11385"
     inkscape:window-x="2869"
     inkscape:window-y="-11"
     inkscape:window-maximized="1"
     inkscape:current-layer="g18" />
  <g
     inkscape:groupmode="layer"
     inkscape:label="Image"
     id="g18"
     transform="translate(-205.13734,-173.76)">
    <path
       id="path348"
       style="fill:#f7991d;fill-opacity:1;stroke:none;stroke-width:0.96"
       d="m 507.84,634.56 c -8.01216,-5.62176 -13.896,-11.42784 -24,-13.01856 -60.25728,-9.48864 -69.168,94.35072 -10.56,100.2144 5.84064,0.58464 11.71392,-0.11904 17.28,-1.96704 7.16352,-2.37792 12.15936,-7.98912 17.28,-13.2288 0.2976,12.67392 15.98976,20.36832 24.28512,8.59776 C 537.792,707.1168 534.72,691.008 534.72,681.6 v -59.52 c 0,-8.05248 2.0112,-19.35168 -1.17888,-26.87616 -4.3344,-10.224 -19.45728,-11.04096 -24.56928,-0.96 C 504.03072,603.9888 507.84,623.69376 507.84,634.56 M 811.2,588.03072 c -19.55712,4.65984 -8.27328,29.05824 9.6,25.03104 19.50528,-4.39392 8.36736,-29.31072 -9.6,-25.03104 M 233.28,679.68 c 5.99328,0 15.67488,-1.84224 21.08256,0.98688 14.93184,7.81056 18.73248,31.7664 34.61184,38.82144 8.74368,3.88416 20.40192,-1.46016 19.8816,-11.96832 -0.32448,-6.54336 -5.47584,-11.53248 -9.336,-16.32 -4.5744,-5.67264 -9.57216,-11.08992 -13.44,-17.28 27.24096,-11.40096 33.54816,-52.0512 9.6,-70.53216 -14.7648,-11.39328 -35.33664,-9.14784 -52.8,-9.14784 -10.29984,0 -29.24544,-3.81504 -35.4336,6.7344 -3.45888,5.89632 -2.0064,14.54688 -2.0064,21.1056 v 45.12 33.6 c 0,6.12384 -0.24768,12.54528 4.90368,16.87776 7.00704,5.89152 18.47232,3.18336 21.83424,-5.35872 3.59424,-9.13152 1.10208,-22.91712 1.10208,-32.63904 m 407.04,2.88 c 13.10496,0 26.57856,0.91296 39.36,-2.5344 30.42624,-8.208 44.784,-48.09408 21.6576,-72.06816 C 687.34944,593.45664 667.49952,594.24 648.96,594.24 c -9.85536,0 -27.33696,-3.4896 -33.88512,5.80224 -3.76704,5.34624 -2.59488,12.9888 -2.59488,19.15776 v 43.2 37.44 c 0,5.97312 -0.54144,12.46752 4.056,17.064 6.48,6.48096 18.27264,4.64256 22.27392,-3.62784 3.99744,-8.2608 1.51008,-21.7104 1.51008,-30.71616 M 233.28,655.68 V 619.2 c 12.35232,0 30.2352,-3.28512 41.2656,3.23232 10.90752,6.44544 9.83424,24.02976 -0.94944,29.96736 C 262.51872,658.49856 245.46528,655.68 233.28,655.68 m 407.04,1.92 v -38.4 c 10.49664,0 23.83008,-2.20416 33.6,2.25888 13.62336,6.22272 13.6176,25.79328 0.95904,33.17856 C 665.38272,660.17856 650.89536,657.6 640.32,657.6 m -288.96,24 h 45.12 c 6.2496,0 13.91136,0.77664 18.66432,-4.21824 6.34176,-6.66336 2.84544,-18.93984 0.20448,-26.50176 -8.1888,-23.45088 -33.83808,-34.95456 -57.2688,-27.80256 -50.31072,15.35712 -41.3088,91.9488 9.6,98.56512 12.37056,1.60704 26.01888,-1.06176 36.47616,-7.92864 6.03264,-3.96096 10.69152,-11.90112 5.2704,-18.53568 -7.51392,-9.19488 -18.31872,1.36416 -26.38656,3.54912 C 367.85376,702.84 357.6144,694.79712 351.36,681.6 m 404.16,-43.2 c -0.0384,-13.31136 -16.30176,-24.19776 -24.87456,-9.5856 -3.7008,6.30912 -2.00544,15.99552 -2.00544,23.0256 0,18.11328 -3.76512,40.97184 0.51168,58.56 2.33568,9.6048 14.66784,13.93536 22.21248,7.14432 4.67904,-4.21248 4.15584,-10.0512 4.15584,-15.78432 0,-10.46688 -0.63648,-21.41952 1.82304,-31.68 1.91904,-8.00544 6.23232,-14.78208 13.53792,-18.86496 5.44608,-3.04416 12.78336,-3.67872 15.69216,-9.94944 C 791.40384,630.85248 782.16,619.18848 770.88,622.70688 763.46496,625.01952 760.10592,632.8608 755.52,638.4 m 56.64,-15.69312 c -9.02688,2.82048 -9.59904,11.59584 -9.6,19.53312 v 45.12 c 0,7.31328 -1.22304,15.90432 0.51168,23.04 1.79616,7.3872 9.37248,11.93088 16.76832,10.02336 9.768,-2.51904 9.6,-11.39616 9.6,-19.62336 v -46.08 c 0,-7.28448 1.26432,-15.92352 -0.37824,-23.03904 -1.67424,-7.25184 -9.99264,-11.13312 -16.90176,-8.97408 M 392.64,664.32 h -41.28 c 2.02944,-13.7424 16.51584,-27.9744 30.71904,-18.52512 6.57984,4.37664 9.03648,11.15712 10.56096,18.52512 m 89.28,-19.86816 c 31.26432,-4.14336 35.12352,50.11776 4.8,54.13632 -31.34688,4.15392 -35.45184,-50.07456 -4.8,-54.13632" />
    <path
       id="path286"
       style="fill:#f7991d;fill-opacity:1;stroke:none;stroke-width:0.96"
       d="m 211.2,283.2 v 263.04 l 106.56,8.55456 71.04,5.84544 v -302.4 c -59.3328,4.68288 -118.15776,22.40832 -177.6,24.96 m 47.04,78.72 c 8.33472,-3.10656 13.66464,-0.81888 21.8064,-1.40544 4.05312,-0.29184 6.30336,-3.99456 10.83264,-2.83008 7.65408,1.968 9.88032,11.7696 2.88096,15.75552 2.87904,10.76832 3.96576,18.216 -2.88,27.84 9.4464,1.42368 8.95488,8.14272 9.6,16.32 h -0.96 l -2.88,-2.88 c 4.90752,11.6304 4.32768,24.8688 0,36.48 H 312 v -3.84 h -6.72 l -4.8,-46.08 36.48,-3.84 c 0.0317,3.83808 -0.6096,15.04032 3.18528,17.08992 2.472,1.33632 14.0304,-0.0134 9.29472,-3.64992 l 9.6,-2.88 -3.84,2.88 v 1.92 h 13.44 v 6.72 h 0.96 l 0.96,-2.88 h 1.92 l 1.92,21.12 -9.6,3.84 -1.92,10.56 c 14.82816,1.53312 16.11552,39.10368 2.8656,43.19232 -6.61344,2.04096 -27.96288,2.01888 -33.45792,-2.40576 -6.81312,-5.48736 -5.91264,-32.77536 0.0912,-38.59872 9.06624,-8.79264 18.41952,4.38912 28.58112,0.69216 v -0.96 c -8.8224,2.09952 -15.12768,-0.93408 -15.36,-10.56 -3.4608,0.43776 -10.29984,-0.0538 -12.86112,2.49888 -2.04384,2.03808 -1.41216,5.5296 -2.80416,7.96032 -4.18272,7.30464 -11.99424,4.416 -16.97472,0.1008 3.06624,4.11744 6.46944,5.95968 11.52,6.72 0,8.44704 2.86752,23.77632 -3.18144,30.58176 -5.74752,6.4656 -35.40864,5.65152 -40.15488,-1.824 -4.77696,-7.52448 -1.83648,-26.232 0.13632,-34.51776 l -6.72,-0.96 c 1.56,8.40288 4.2144,28.09344 -0.71232,35.4672 -5.14944,7.70496 -34.128,8.02368 -39.8928,0.7968 -6.63456,-8.31648 -5.28864,-37.24512 7.00512,-39.144 -3.98976,-14.62368 -2.14944,-23.91744 1.92,-38.4 -2.74752,2.8704 -5.67456,7.73568 -9.61344,8.97888 -4.48896,1.416 -8.07456,-2.79264 -6.99744,-7.05984 2.18976,-8.67648 14.35776,-14.15808 22.37088,-15.35904 -6.30624,-8.9616 -2.17728,-14.39232 -3.22464,-23.72544 -0.49824,-4.44 -4.47744,-6.69024 -3.07872,-11.78016 2.14752,-7.81152 11.99808,-8.09952 15.90336,-1.9344 m -11.52,9.6 h 1.92 l 6.72,-6.72 v -1.92 c -6.63168,-1.88256 -10.5216,2.00832 -8.64,8.64 m 37.44,-8.64 8.64,8.64 c 2.95392,-6.87552 -2.0496,-10.53024 -8.64,-8.64 m -26.71296,16.48896 c -3.07872,0.46656 -2.39136,5.19648 0.70656,4.70688 3.12288,-0.49248 2.43264,-5.18304 -0.70656,-4.70688 m 24.0096,0 c -2.98752,0.4608 -2.21664,5.19072 0.74496,4.70688 3.08352,-0.50304 2.3616,-5.18592 -0.74496,-4.70688 M 268.8,402.24 c 2.59776,-2.208 7.64064,-9.78624 5.71488,-13.22112 -2.0208,-3.60384 -8.56512,-3.61152 -9.58272,0.84192 -1.01952,4.4592 4.71168,7.24128 3.86784,12.3792 m -2.88,-2.88 1.92,1.92 -1.92,-1.92 m 7.68,0 -0.96,1.92 0.96,-1.92 m 38.4,9.6 0.96,6.72 12.48,-0.96 -0.96,-7.68 -12.48,1.92 m 57.6,15.36 v 4.8 h 0.96 l -0.96,-4.8 m -120.94176,3.59712 c -11.34528,4.28544 -5.87424,30.81216 7.61952,25.89504 11.43072,-4.16448 4.27872,-30.38976 -7.61952,-25.89504 m 35.51616,0 c -11.3376,4.23072 -11.11104,31.57632 3.73632,25.9824 10.25952,-3.864 9.3264,-30.85728 -3.73632,-25.9824 M 370.56,433.92 v 3.84 h 0.96 l -0.96,-3.84 m -58.56,18.24 0.96,0.96 -0.96,-0.96 m 49.92,0 -0.96,1.92 0.96,-1.92 m -108.48,11.52 -6.72,14.4 h 14.4 l -7.68,-14.4 m 46.18464,2.63328 c -7.7952,3.2928 -2.31552,15.6288 5.60256,12.79008 8.78688,-3.1488 3,-16.42368 -5.60256,-12.79008 M 344.64,467.52 V 480 h 12.48 v -12.48 h -12.48" />
    <path
       id="path284"
       style="fill:#d8445e;fill-opacity:1;stroke:none;stroke-width:0.96"
       d="m 646.08,252.48 v 293.76 c 60.56448,4.77984 122.6016,12.48 183.36,12.48 0,-67.57728 -0.96,-134.99808 -0.96,-202.56 0,-17.64672 -0.96,-35.1984 -0.96,-52.8 0,-4.90368 2.14368,-16.55904 -0.98688,-20.54112 -1.96896,-2.5056 -8.53632,-2.54496 -11.49312,-3.04128 -11.18688,-1.87584 -22.40832,-3.58944 -33.6,-5.45472 C 736.86816,266.8944 691.10688,256.03872 646.08,252.48 m 89.32224,98.35104 c 9.05088,-2.33856 12.87168,11.30784 3.78048,13.53504 -8.64096,2.11584 -12.04224,-11.4 -3.78048,-13.53504 M 768,360.96 c -10.24032,18.65184 -26.68704,30.95904 -29.76,53.76 h -0.96 c -6.26592,-22.07904 -17.86656,-35.5104 -30.72,-53.76 l 20.16,6.07008 10.56,5.7744 10.56,-5.33376 L 768,360.96 m -80.63616,17.66304 c 11.976,-2.58144 15.77088,16.23264 3.83232,18.40032 -11.57856,2.10144 -15.69024,-15.8448 -3.83232,-18.40032 m 95.99712,0.0374 c 11.57952,-3.02688 16.07712,14.85504 4.7952,18.1392 -11.77536,3.4272 -16.68384,-15.03264 -4.7952,-18.1392 M 706.56,382.08 c 26.25312,22.93536 31.40448,62.17632 17.28,94.08 L 697.1472,430.08 662.4,397.44 c 15.73536,1.2528 31.26432,7.46784 46.08,12.48 l -1.92,-27.84 m 63.36,0 -3.84,27.84 47.04,-12.48 v 0.96 c -28.82304,17.95008 -49.31808,46.5072 -61.44,77.76 h -0.96 c -9.41184,-29.4336 -13.81152,-77.04384 19.2,-94.08" />
    <path
       id="path235"
       style="fill:#74a7a8;fill-opacity:1;stroke:none;stroke-width:0.96"
       d="M 411.84,210.24 V 571.2 L 567.36,563.43456 625.92,560.64 V 173.76 l -55.68,9.36 -158.4,27.12 m 132.48,138.24 c 9.55872,-5.08896 18.56832,-11.30112 27.84,-16.89696 3.62016,-2.18496 7.99488,-6.11616 12.47904,-5.89728 4.28928,0.21024 6.75648,4.17888 8.82144,7.43424 4.62528,7.28832 18.69888,25.42272 14.04384,34.5216 -2.0352,3.97824 -6.77472,6.09792 -10.38432,8.37216 -9.03936,5.6976 -18.15648,12.09984 -27.84,16.62624 v 0.96 c 9.36576,4.42944 18.1008,10.86144 26.88,16.368 3.74208,2.3472 9.16512,4.63392 11.3472,8.68128 4.61952,8.57088 -9.79968,27.02784 -13.9344,34.47072 -1.87104,3.36768 -3.68352,7.08384 -7.97664,7.49568 -4.62144,0.44352 -8.79264,-3.10848 -12.47616,-5.39136 -9.3024,-5.76384 -18.7152,-11.42592 -27.84,-17.46432 v 32.64 c 0,4.67232 1.01952,10.86624 -0.85728,15.25632 -2.07264,4.84416 -15.72768,7.84416 -19.27584,3.3648 C 523.41888,486.84 524.16,482.58528 524.16,480 c -9.6e-4,-8.712 0.43008,-17.28768 1.65984,-25.92 5.5536,-38.97792 19.12032,-68.20032 48.26016,-95.04 -14.68128,4.22976 -27.79296,13.83072 -43.2,16.032 -23.73408,3.39072 -44.9232,-8.7216 -66.24,-16.992 37.2288,34.29024 58.5264,80.29248 58.56,131.52 -5.98656,0.0451 -17.82048,2.40288 -22.77216,-1.53888 C 496.47552,484.9152 497.28,478.69344 497.28,474.24 v -36.48 c -9.51936,5.06688 -18.67104,11.0496 -27.84,16.72704 -3.44448,2.13312 -8.12736,6.22464 -12.47616,5.69184 -4.16256,-0.5088 -6.17952,-4.78272 -7.97664,-8.01888 -4.07616,-7.34016 -18.66336,-25.95456 -14.07936,-34.47072 2.18208,-4.05408 7.7088,-6.45024 11.49216,-8.72928 8.5008,-5.1216 16.8,-11.42496 25.92,-15.36 v -1.92 c -9.39936,-4.39296 -18.096,-10.76256 -26.88,-16.272 -3.72288,-2.33472 -8.97312,-4.57632 -10.93152,-8.77728 -4.56768,-9.79776 8.78208,-24.69216 13.07328,-32.55072 2.02176,-3.70272 4.46112,-9.05184 9.38208,-9.17568 4.46208,-0.11232 8.87904,4.10016 12.47616,6.2928 9.3264,5.68512 18.5328,11.56608 27.84,17.28288 0,-9.15936 0.79968,-18.7392 -0.27456,-27.84 -0.71232,-6.03936 -2.51808,-15.61824 1.09824,-21.01536 5.16864,-7.71456 27.34368,-4.15104 35.65632,-3.93024 3.54816,0.0941 7.47264,0.55584 9.42816,3.95328 2.32896,4.04832 1.13184,10.73088 1.13184,15.23232 v 33.6 m -28.7616,-7.81632 c -13.66752,5.8176 -5.13312,29.75136 9.55776,23.99328 14.93088,-5.85216 5.67936,-30.47904 -9.55776,-23.99328 M 461.76,356.16 l 0.96,0.96 -0.96,-0.96 m 116.16,0 0.96,0.96 -0.96,-0.96 m -114.24,0.96 0.96,0.96 -0.96,-0.96 m 112.32,0 -1.92,0.96 v 0.96 l 1.92,-1.92" />
    <path
       style="fill:#5d5d5d;fill-opacity:1;stroke-width:0.96"
       d="m 239.00973,857.346 c -4.36014,-1.3424 -6.81484,-3.3598 -8.84158,-7.26646 -4.18887,-8.07421 -1.6428,-19.97041 5.11947,-23.92 4.31272,-2.51891 10.71499,-2.41147 14.30128,0.24 1.54735,1.144 3.04685,2.08 3.33223,2.08 0.28538,0 0.51887,-3.1536 0.51887,-7.008 0,-4.17066 0.46641,-7.47441 1.152,-8.16 1.7857,-1.7857 4.34936,-1.36583 5.99357,0.98161 1.22711,1.75194 1.49443,5.444 1.49443,20.64 0,17.22635 -0.1328,18.63915 -1.92,20.42635 -2.40935,2.4094 -3.35335,2.4067 -5.77652,-0.016 -1.92044,-1.9204 -1.95832,-1.921 -4.56,-0.076 -3.1765,2.2532 -7.5294,3.0899 -10.81375,2.0787 z m 11.07487,-9.10378 c 2.72944,-2.72945 3.80763,-6.31017 2.94043,-9.76536 -2.22098,-8.84908 -13.07716,-9.44585 -15.90601,-0.87434 -3.02886,9.17752 6.55947,17.04578 12.96558,10.6397 z m 30.35329,9.03528 c -4.67225,-1.1031 -7.96146,-3.8249 -10.50639,-8.69416 -5.86292,-11.21755 1.97308,-24.37167 14.42885,-24.22139 6.04623,0.073 10.34055,2.69684 12.99965,7.94297 4.74199,9.35543 2.70562,11.53462 -10.7787,11.53462 -9.60913,0 -9.90493,0.0635 -9.3939,2.01775 1.29419,4.94897 8.92165,6.61451 14.26325,3.11457 2.62683,-1.72116 5.18935,-0.72289 5.18935,2.0216 0,2.79474 -2.42779,4.88034 -7.2,6.18534 -4.28356,1.1713 -4.4514,1.1732 -9.00211,0.099 z M 290.88,836.74589 c 0,-2.03272 -3.12321,-5.25006 -5.28,-5.43913 -3.82493,-0.33531 -5.2401,0.0902 -7.1626,2.1538 -3.5425,3.80242 -2.6157,4.61898 5.2426,4.61898 5.50481,0 7.2,-0.314 7.2,-1.33365 z m 182.51789,20.53161 c -4.67225,-1.1031 -7.96146,-3.8249 -10.50639,-8.69416 -5.86292,-11.21755 1.97308,-24.37167 14.42885,-24.22139 6.04623,0.073 10.34055,2.69684 12.99965,7.94297 4.74199,9.35543 2.70562,11.53462 -10.7787,11.53462 -9.55208,0 -9.90225,0.0738 -9.40329,1.98182 1.21057,4.62922 9.0992,6.54024 13.93045,3.37471 2.93066,-1.92024 5.53154,-1.07512 5.53154,1.79739 0,2.94644 -2.58159,5.02904 -7.69418,6.20704 -2.3682,0.5457 -4.52182,0.9585 -4.78582,0.9173 -0.264,-0.041 -1.93895,-0.4192 -3.72211,-0.8403 z M 483.84,836.85315 c 0,-2.29237 -2.81556,-5.25747 -5.47511,-5.76587 -4.27025,-0.81631 -8.92489,2.37068 -8.92489,6.11078 0,0.48481 3.24,0.88148 7.2,0.88148 5.20264,0 7.2,-0.34021 7.2,-1.22639 z m 43.50039,20.33775 c -7.03004,-2.0564 -9.45683,-11.06261 -4.3555,-16.16395 3.0853,-3.08529 9.27404,-4.3505 14.85511,-3.03692 3.17951,0.74835 3.6,0.63744 3.6,-0.94946 0,-3.27056 -4.0838,-4.92976 -11.24587,-4.56908 -6.4847,0.32657 -6.5155,0.31613 -6.81785,-2.31148 -0.39288,-3.41435 2.72379,-4.73889 11.44899,-4.86565 10.98798,-0.15964 14.45774,3.68332 15.08018,16.7022 0.47621,9.96024 -0.0984,12.92774 -2.78117,14.36354 -1.52971,0.8186 -2.49783,0.712 -4.30866,-0.4745 -2.04302,-1.3386 -2.60622,-1.359 -4.49562,-0.1624 -3.0499,1.9314 -7.40443,2.5136 -10.97961,1.4677 z m 12.46505,-7.37606 c 2.78337,-2.50862 1.75493,-6.18983 -1.99921,-7.15602 -4.65378,-1.19773 -8.2828,0.81011 -8.66767,4.79561 -0.2426,2.5123 0.13212,3.29944 1.92,4.03314 2.72202,1.11703 6.44057,0.40593 8.74688,-1.67273 z m 118.09495,7.37606 c -7.03004,-2.0564 -9.45683,-11.06261 -4.3555,-16.16395 3.0853,-3.08529 9.27404,-4.3505 14.85511,-3.03692 3.17951,0.74835 3.6,0.63744 3.6,-0.94946 0,-3.27056 -4.0838,-4.92976 -11.24587,-4.56908 -6.4847,0.32657 -6.5155,0.31613 -6.81785,-2.31148 -0.39288,-3.41435 2.72379,-4.73889 11.44899,-4.86565 10.98798,-0.15964 14.45774,3.68332 15.08018,16.7022 0.47621,9.96024 -0.0984,12.92774 -2.78117,14.36354 -1.52971,0.8186 -2.49783,0.712 -4.30866,-0.4745 -2.04302,-1.3386 -2.60622,-1.359 -4.49562,-0.1624 -3.0499,1.9314 -7.40443,2.5136 -10.97961,1.4677 z m 12.46505,-7.37606 c 2.78337,-2.50862 1.75493,-6.18983 -1.99921,-7.15602 -4.65378,-1.19773 -8.2828,0.81011 -8.66767,4.79561 -0.2426,2.5123 0.13212,3.29944 1.92,4.03314 2.72202,1.11703 6.44057,0.40593 8.74688,-1.67273 z m 65.34465,7.55146 c -10.74258,-2.7097 -15.55059,-15.23779 -9.68744,-25.24248 3.09313,-5.27803 7.87118,-7.8452 14.65643,-7.87468 8.31233,-0.0361 14.7496,5.5209 10.49029,9.05582 -1.29122,1.07162 -2.09289,1.08183 -4.60633,0.0587 -7.65217,-3.11489 -12.30564,-1.59514 -14.17004,4.62768 -2.52288,8.42063 5.29262,15.23706 12.82152,11.18248 4.43079,-2.38615 6.94548,-1.72537 6.94548,1.82503 0,2.11295 -0.71804,3.23245 -2.8849,4.49795 -3.52984,2.0615 -9.52684,2.888 -13.56501,1.8694 z m 45.13308,-0.474 c -4.03587,-1.7999 -6.12317,-5.0383 -6.12317,-9.50021 0,-7.18688 8.2107,-11.59313 17.52,-9.40206 3.17951,0.74835 3.6,0.63744 3.6,-0.94946 0,-3.27056 -4.0838,-4.92976 -11.24587,-4.56908 -6.4847,0.32657 -6.5155,0.31613 -6.81785,-2.31148 -0.39583,-3.44003 2.77513,-4.76167 11.53677,-4.80846 11.03585,-0.0589 14.37079,3.64361 14.9924,16.64501 0.47621,9.96024 -0.0984,12.92774 -2.78117,14.36354 -1.52971,0.8186 -2.49783,0.712 -4.30866,-0.4745 -2.05718,-1.3479 -2.59312,-1.3645 -4.49562,-0.1392 -3.33352,2.1469 -8.51191,2.6465 -11.87683,1.1459 z m 13.36227,-7.07746 c 2.78337,-2.50862 1.75493,-6.18983 -1.99921,-7.15602 -4.65378,-1.19773 -8.2828,0.81011 -8.66767,4.79561 -0.2426,2.5123 0.13212,3.29944 1.92,4.03314 2.72202,1.11703 6.44057,0.40593 8.74688,-1.67273 z M 325.44,855.3595 c -1.78163,-1.7816 -1.92,-3.2 -1.92,-19.67996 0,-21.85495 -0.12689,-21.61221 11.28,-21.57709 16.21812,0.0499 22.66206,4.41277 22.68152,15.35644 0.0163,9.19765 -6.45116,14.38065 -17.94461,14.38065 H 333.12 v 4.8 c 0,4.68796 -2.1956,8.63996 -4.8,8.63996 -0.528,0 -1.824,-0.864 -2.88,-1.92 z m 21.12,-21.11996 c 2.34753,-2.34753 2.51718,-7.34894 0.33121,-9.76441 -1.22119,-1.34939 -2.99812,-1.75559 -7.68,-1.75559 H 333.12 v 6.72 6.72 h 5.76 c 4.48,0 6.18666,-0.42666 7.68,-1.92 z m 18,22.00306 c -1.48117,-0.8627 -1.68,-2.6731 -1.68,-15.29699 0,-13.336 0.13175,-14.38903 1.92,-15.34607 2.39797,-1.28336 5.36359,0.11868 6.26616,2.96242 l 0.63619,2.00446 1.39806,-1.99602 c 3.33491,-4.76126 8.97959,-4.46462 8.97959,0.4719 0,1.84036 -0.77862,2.74053 -3.27131,3.78205 -5.61687,2.34688 -7.28869,5.45365 -7.28869,13.54466 0,5.79049 -0.34759,7.41809 -1.92,8.99049 -2.16971,2.1698 -2.6781,2.2588 -5.04,0.8831 z m 25.2,-0.8831 c -1.71627,-1.7162 -1.92,-3.2 -1.92,-13.98307 0,-6.63471 0.42,-12.84789 0.93333,-13.80706 1.26057,-2.35539 3.61466,-3.13226 5.85621,-1.93261 1.70042,0.91004 1.85046,2.1524 1.85046,15.32278 0,13.18756 -0.14833,14.41186 -1.85689,15.32626 -2.47713,1.3257 -2.64271,1.2941 -4.86311,-0.9263 z m 17.04,0.8831 c -1.48117,-0.8627 -1.68,-2.6731 -1.68,-15.29699 0,-13.60605 0.10127,-14.37272 2.03515,-15.40769 1.65556,-0.88603 2.51519,-0.73428 4.60888,0.81366 2.46552,1.82283 2.67256,1.8324 4.92484,0.22774 4.7821,-3.40707 11.80776,-2.80518 15.21522,1.30349 1.25165,1.50924 1.49283,1.48095 3.50721,-0.41146 2.48142,-2.33118 7.78526,-3.77091 11.36836,-3.08595 3.32678,0.63595 6.93685,4.43668 7.66307,8.06777 0.3285,1.6425 0.59727,7.03637 0.59727,11.98637 0,7.71996 -0.27306,9.27306 -1.92,10.91996 -2.24309,2.2431 -2.92717,2.3411 -5.02882,0.72 -1.21633,-0.9381 -1.6229,-3.3657 -1.86348,-11.1262 -0.28266,-9.11847 -0.49436,-10.07726 -2.6015,-11.78222 -1.47011,-1.18952 -3.02139,-1.63864 -4.32,-1.25074 -4.2519,1.27011 -4.89177,2.88412 -5.2139,13.15155 -0.24004,7.65081 -0.64985,10.07151 -1.86348,11.00761 -2.10165,1.6211 -2.78573,1.5231 -5.02882,-0.72 -1.64499,-1.6449 -1.92,-3.2 -1.92,-10.85648 0,-10.25127 -1.00384,-12.50348 -5.57296,-12.50348 -5.24552,0 -5.94704,1.41053 -5.94704,11.95754 0,8.20242 -0.25917,9.74162 -1.92,11.40242 -2.16971,2.1698 -2.6781,2.2588 -5.04,0.8831 z m 94.08,0 c -1.48117,-0.8627 -1.68,-2.6731 -1.68,-15.29699 0,-13.336 0.13175,-14.38903 1.92,-15.34607 2.39797,-1.28336 5.36359,0.11868 6.26616,2.96242 l 0.63619,2.00446 1.39806,-1.99602 c 3.33491,-4.76126 8.97959,-4.46462 8.97959,0.4719 0,1.84036 -0.77862,2.74053 -3.27131,3.78205 -5.61687,2.34688 -7.28869,5.45365 -7.28869,13.54466 0,5.79049 -0.34759,7.41809 -1.92,8.99049 -2.16971,2.1698 -2.6781,2.2588 -5.04,0.8831 z m 76.08,-0.8831 c -1.78163,-1.7816 -1.92,-3.2 -1.92,-19.67996 0,-16.48 0.13837,-17.89837 1.92,-19.68 1.056,-1.056 2.352,-1.92 2.88,-1.92 0.528,0 1.824,0.864 2.88,1.92 1.78163,1.78163 1.92,3.2 1.92,19.68 0,16.47996 -0.13837,17.89836 -1.92,19.67996 -1.056,1.056 -2.352,1.92 -2.88,1.92 -0.528,0 -1.824,-0.864 -2.88,-1.92 z m 18.96,0.8831 c -1.48117,-0.8627 -1.68,-2.6731 -1.68,-15.29699 0,-13.60605 0.10127,-14.37272 2.03515,-15.40769 1.65556,-0.88603 2.51519,-0.73428 4.60888,0.81366 2.56914,1.89944 2.5785,1.89935 5.26165,-0.0552 4.21445,-3.07002 10.64595,-2.5883 14.30574,1.07149 2.77866,2.77866 2.91609,3.31145 3.34569,12.97101 0.24641,5.54032 0.17176,11.174 -0.16588,12.51932 -0.79196,3.1554 -3.78764,4.8333 -6.26347,3.5083 -1.5883,-0.85 -1.87587,-2.3201 -2.16,-11.04171 -0.36873,-11.31888 -1.37122,-13.32526 -6.65793,-13.32526 -4.67694,0 -5.66983,2.18959 -5.66983,12.50349 0,7.65648 -0.27501,9.21148 -1.92,10.85648 -2.16971,2.1697 -2.6781,2.2588 -5.04,0.8831 z m 37.68,-0.8831 c -1.68653,-1.6865 -1.92,-3.2 -1.92,-12.44619 0,-9.5437 -0.17921,-10.62213 -1.92,-11.55377 -1.056,-0.56515 -1.92,-1.87269 -1.92,-2.90564 0,-1.03295 0.864,-2.41767 1.92,-3.07715 1.056,-0.65948 1.92241,-1.63515 1.92536,-2.16814 0.0207,-3.75836 2.29374,-8.31581 4.79166,-9.60753 5.02678,-2.59944 12.48298,-1.16682 12.48298,2.39846 0,1.60705 -3.05046,3.84 -5.24586,3.84 -2.01887,0 -3.39414,1.58774 -3.39414,3.91852 0,0.48481 1.04467,0.88148 2.32148,0.88148 3.93811,0 5.35852,1.01789 5.35852,3.84 0,2.82211 -1.42041,3.84 -5.35852,3.84 H 640.32 v 11.48623 c 0,10.37353 -0.17988,11.58253 -1.85689,12.48003 -2.47713,1.3257 -2.64271,1.2941 -4.86311,-0.9263 z m 55.44,0.8831 c -1.48117,-0.8627 -1.68,-2.6731 -1.68,-15.29699 0,-13.60605 0.10127,-14.37272 2.03515,-15.40769 1.65556,-0.88603 2.51519,-0.73428 4.60888,0.81366 2.56914,1.89944 2.5785,1.89935 5.26165,-0.0552 4.21445,-3.07002 10.64595,-2.5883 14.30574,1.07149 2.77866,2.77866 2.91609,3.31145 3.34569,12.97101 0.24641,5.54032 0.17176,11.174 -0.16588,12.51932 -0.79196,3.1554 -3.78764,4.8333 -6.26347,3.5083 -1.5883,-0.85 -1.87587,-2.3201 -2.16,-11.04171 -0.36873,-11.31888 -1.37122,-13.32526 -6.65793,-13.32526 -4.67694,0 -5.66983,2.18959 -5.66983,12.50349 0,7.65648 -0.27501,9.21148 -1.92,10.85648 -2.16971,2.1697 -2.6781,2.2588 -5.04,0.8831 z m 72.24,-0.8831 c -1.71627,-1.7162 -1.92,-3.2 -1.92,-13.98307 0,-6.63471 0.42,-12.84789 0.93333,-13.80706 1.26057,-2.35539 3.61466,-3.13226 5.85621,-1.93261 1.70042,0.91004 1.85046,2.1524 1.85046,15.32278 0,13.18756 -0.14833,14.41186 -1.85689,15.32626 -2.47713,1.3257 -2.64271,1.2941 -4.86311,-0.9263 z M 388.72963,818.80917 c -1.78881,-1.78881 -1.85059,-2.20197 -0.60998,-4.08 1.78151,-2.69687 5.14315,-3.17237 7.47952,-1.05799 2.31652,2.09643 2.30546,2.82373 -0.0792,5.20836 -2.44727,2.44727 -4.29184,2.42816 -6.79037,-0.0704 z m 372.77937,1.35091 c -0.66605,-0.26833 -1.67248,-1.35016 -2.23651,-2.40407 -1.28196,-2.39534 1.23911,-5.59647 4.40751,-5.59647 3.14494,0 5.68898,3.20203 4.42318,5.56719 -1.40449,2.62433 -3.86575,3.53256 -6.59418,2.43335 z M 622.8,806.32264 c -1.51318,-0.88134 -1.68,-2.92453 -1.68,-20.57703 0,-18.98563 0.0636,-19.63258 2.03515,-20.68769 1.65556,-0.88603 2.51519,-0.73428 4.60888,0.81366 2.57099,1.90081 2.57661,1.90072 5.30836,-0.0892 3.68532,-2.68457 11.0815,-2.71901 14.63207,-0.0682 5.04817,3.769 6.4805,6.71984 6.84124,14.094 0.29324,5.99452 0.0407,7.3453 -1.9038,10.18303 -3.61015,5.26851 -6.88493,7.17751 -12.3126,7.17751 -3.45258,0 -5.60752,-0.59831 -7.68378,-2.13336 l -2.88552,-2.1333 v 5.30874 c 0,4.02874 -0.46293,5.77167 -1.92,7.22874 -2.16971,2.16971 -2.6781,2.25878 -5.04,0.8831 z m 18.78311,-17.35991 c 3.34773,-1.78301 4.43582,-3.86391 4.43582,-8.48319 0,-6.02687 -3.29953,-9.6 -8.8649,-9.6 -2.97648,0 -7.06779,4.06199 -7.5755,7.5212 -1.2427,8.46707 5.23581,14.16706 12.00458,10.56199 z m -383.22522,7.83481 c -1.78315,-0.421 -4.37515,-1.59006 -5.76,-2.59793 -3.34097,-2.4315 -6.83789,-9.44798 -6.83789,-13.72007 0,-4.25052 3.49193,-11.28522 6.79429,-13.68753 5.17897,-3.76743 13.21925,-3.8763 18.74783,-0.25384 2.64816,1.73514 6.08251,8.31142 6.1168,11.7128 0.0425,4.21586 -2.23053,5.10857 -13.00749,5.10857 -5.50628,0 -10.01143,0.2444 -10.01143,0.54311 0,1.83412 2.5183,4.60485 5.20601,5.72784 3.29259,1.37574 6.40326,1.00339 9.77873,-1.17052 4.24958,-2.73686 7.29622,2.28256 3.48108,5.73521 -1.39875,1.26584 -9.06082,3.71143 -10.78582,3.44262 -0.264,-0.0412 -1.93895,-0.41925 -3.72211,-0.84026 z M 268.8,776.71806 c 0,-5.95939 -9.26539,-8.19644 -13.09123,-3.16078 -2.57525,3.38959 -1.62404,4.04226 5.89123,4.04226 3.96,0 7.2,-0.39667 7.2,-0.88148 z m 24.92973,20.14798 c -4.36095,-1.34272 -6.81503,-3.36016 -8.83918,-7.2665 -2.56218,-4.94466 -2.71846,-13.09164 -0.34499,-17.98487 3.51509,-7.24685 13.69627,-10.18071 19.76334,-5.69513 1.54735,1.144 3.04685,2.08 3.33223,2.08 0.28538,0 0.51887,-3.1536 0.51887,-7.008 0,-4.17066 0.46641,-7.47441 1.152,-8.16 1.7857,-1.7857 4.34936,-1.36583 5.99357,0.98161 1.22711,1.75194 1.49443,5.444 1.49443,20.64 0,17.22639 -0.1328,18.63919 -1.92,20.42639 -2.40935,2.40935 -3.35335,2.40665 -5.77652,-0.0165 -1.92044,-1.92044 -1.95832,-1.92108 -4.56,-0.0756 -3.1765,2.25316 -7.5294,3.08988 -10.81375,2.07865 z m 11.05028,-9.07924 c 3.30997,-3.30996 4.03496,-8.40842 1.75161,-12.31805 -3.66515,-6.27559 -10.89577,-5.99371 -14.09548,0.54953 -1.53989,3.14899 -1.64114,4.23194 -0.69187,7.4003 1.97835,6.60313 8.58648,8.81748 13.03574,4.36822 z M 405.6,796.9463 c -4.46628,-0.97198 -6.2367,-5.51141 -6.23851,-15.99583 -9.6e-4,-7.60847 -0.23249,-8.79334 -1.92149,-9.84814 -1.056,-0.65948 -1.92,-2.0442 -1.92,-3.07715 0,-1.03295 0.864,-2.34049 1.92,-2.90564 1.056,-0.56515 1.92,-1.90476 1.92,-2.97689 0,-4.53943 3.46102,-7.40727 6.78954,-5.62589 1.28068,0.6854 1.85046,2.01452 1.85046,4.31655 0,2.93071 0.29289,3.32623 2.46311,3.32623 3.39893,0 6.17689,1.65583 6.17689,3.68177 0,2.56851 -1.95673,3.99823 -5.472,3.99823 H 408 v 7.26311 c 0,8.30029 1.03296,10.97689 4.23623,10.97689 3.19497,0 4.8242,2.22064 3.47661,4.73864 -0.58322,1.08974 -1.58519,1.98725 -2.22661,1.99446 -0.64143,0.008 -2.03023,0.18126 -3.08623,0.38677 -1.056,0.20551 -3.216,0.0916 -4.8,-0.25311 z m 27.47789,-0.14876 c -4.67225,-1.1031 -7.96146,-3.82499 -10.50639,-8.6942 -4.266,-8.16216 -0.91077,-18.96852 7.11573,-22.918 3.86443,-1.90151 11.17609,-1.62616 14.99312,0.56463 3.33809,1.91591 7.47965,8.81757 7.47965,12.46441 0,4.25396 -2.24111,5.14516 -12.9387,5.14516 -9.60913,0 -9.90493,0.0635 -9.3939,2.01775 1.29419,4.94897 8.92165,6.61453 14.26325,3.11457 4.24823,-2.78355 7.32514,2.23724 3.49517,5.70332 -1.39875,1.26584 -9.06082,3.71143 -10.78582,3.44262 -0.264,-0.0412 -1.93895,-0.41925 -3.72211,-0.84026 z M 443.52,776.37315 c 0,-2.29237 -2.81556,-5.25747 -5.47511,-5.76587 -4.27025,-0.81631 -8.92489,2.37068 -8.92489,6.11078 0,0.48481 3.24,0.88148 7.2,0.88148 5.20264,0 7.2,-0.34021 7.2,-1.22639 z m 48.35662,20.35236 c -14.11655,-4.13821 -13.78129,-28.69258 0.44407,-32.52307 4.06229,-1.09386 9.7782,0.0664 11.69295,2.37354 2.2216,2.67686 2.86636,1.42071 2.86636,-5.58444 0,-4.17066 0.46641,-7.47441 1.152,-8.16 1.7857,-1.7857 4.34936,-1.36583 5.99357,0.98161 1.22711,1.75194 1.49443,5.444 1.49443,20.64 0,17.22639 -0.1328,18.63919 -1.92,20.42639 -2.40935,2.40935 -3.35335,2.40665 -5.77652,-0.0165 -1.92044,-1.92044 -1.95832,-1.92108 -4.56,-0.0756 -3.3147,2.35118 -7.53018,3.06869 -11.38686,1.93812 z m 10.81747,-8.04773 c 4.90555,-3.43598 5.27161,-12.20974 0.66075,-15.83664 -4.83275,-3.80144 -10.7856,-1.80967 -12.79582,4.28138 -2.80908,8.5116 5.36626,16.29631 12.13507,11.55526 z m 43.28997,8.03702 c -7.21157,-1.69898 -10.43195,-5.66057 -6.95032,-8.55007 1.14979,-0.95424 2.05289,-0.89712 4.56,0.28843 7.22659,3.41726 12.6047,3.15975 12.06223,-0.57755 -0.22663,-1.56128 -1.75655,-2.541 -6.52971,-4.18145 -7.26757,-2.49775 -9.60626,-4.91076 -9.60626,-9.91151 0,-7.48461 6.86598,-11.56095 16.12727,-9.57476 5.92964,1.27168 8.49935,3.70703 6.95547,6.59179 -1.27277,2.37819 -1.27542,2.37838 -6.70544,0.48767 -5.04104,-1.75527 -8.6973,-1.14715 -8.6973,1.44655 0,1.36618 1.67096,2.45629 6.72594,4.38791 7.68809,2.93778 9.59406,5.04439 9.59406,10.60399 0,4.76952 -2.80675,7.85461 -8.30722,9.13101 -4.27063,0.99102 -4.42977,0.98856 -9.22872,-0.14201 z m 35.16603,0.17146 c -7.31198,-1.84432 -12.21984,-8.43799 -12.21197,-16.40672 0.008,-7.91872 5.1877,-14.48859 12.87772,-16.3334 9.56696,-2.29507 20.34186,4.07411 14.7472,8.71727 -1.24856,1.03621 -2.05538,1.03759 -4.56,0.008 -7.89184,-3.24485 -12.23274,-1.82598 -14.1672,4.6307 -2.53505,8.46123 5.4023,15.3202 12.99627,11.23058 4.40932,-2.37458 6.76789,-1.75203 6.76789,1.78641 0,2.11289 -0.71804,3.2324 -2.8849,4.49792 -3.52984,2.06154 -9.52684,2.88802 -13.56501,1.86946 z m 156.49308,-0.47398 c -4.03587,-1.79985 -6.12317,-5.03832 -6.12317,-9.50019 0,-7.18688 8.2107,-11.59313 17.52,-9.40206 3.17951,0.74835 3.6,0.63744 3.6,-0.94946 0,-3.27056 -4.0838,-4.92976 -11.24587,-4.56908 -6.4847,0.32657 -6.5155,0.31613 -6.81785,-2.31148 -0.39356,-3.42028 2.7097,-4.70348 11.54836,-4.77527 11.03261,-0.0897 14.35864,3.59852 14.98081,16.61182 0.47621,9.96025 -0.0984,12.92772 -2.78117,14.3635 -1.52971,0.81868 -2.49783,0.71208 -4.30866,-0.47442 -2.05718,-1.34792 -2.59312,-1.36452 -4.49562,-0.13925 -3.33352,2.14691 -8.51191,2.64652 -11.87683,1.14589 z m 13.36227,-7.07744 c 2.78337,-2.50862 1.75493,-6.18983 -1.99921,-7.15602 -4.65378,-1.19773 -8.2828,0.81011 -8.66767,4.79561 -0.2426,2.5123 0.13212,3.29944 1.92,4.03314 2.72202,1.11704 6.44057,0.40591 8.74688,-1.67273 z m 64.39773,7.07744 c -4.03587,-1.79985 -6.12317,-5.03832 -6.12317,-9.50019 0,-7.18688 8.2107,-11.59313 17.52,-9.40206 3.17951,0.74835 3.6,0.63744 3.6,-0.94946 0,-3.27056 -4.0838,-4.92976 -11.24587,-4.56908 -6.4847,0.32657 -6.5155,0.31613 -6.81785,-2.31148 -0.39288,-3.41435 2.72379,-4.73889 11.44899,-4.86565 10.98798,-0.15964 14.45774,3.68332 15.08018,16.7022 0.47621,9.96025 -0.0984,12.92772 -2.78117,14.3635 -1.52971,0.81868 -2.49783,0.71208 -4.30866,-0.47442 -2.05718,-1.34792 -2.59312,-1.36452 -4.49562,-0.13925 -3.33352,2.14691 -8.51191,2.64652 -11.87683,1.14589 z m 13.36227,-7.07744 c 2.78337,-2.50862 1.75493,-6.18983 -1.99921,-7.15602 -4.65378,-1.19773 -8.2828,0.81011 -8.66767,4.79561 -0.2426,2.5123 0.13212,3.29944 1.92,4.03314 2.72202,1.11704 6.44057,0.40591 8.74688,-1.67273 z M 207.36,794.87954 c -1.78163,-1.78163 -1.92,-3.2 -1.92,-19.68 0,-22.15762 -0.3236,-21.6 12.53489,-21.6 14.93035,0 20.88625,2.76544 23.01972,10.68852 1.65304,6.13896 -1.12541,13.0603 -6.43583,16.03217 -1.43878,0.80518 -1.15811,1.47699 2.38528,5.70917 4.37412,5.2244 5.04158,8.23368 2.16744,9.77187 -2.8421,1.52105 -5.07755,0.11841 -11.0315,-6.92173 -5.05309,-5.97492 -5.77485,-6.48 -9.26012,-6.48 H 215.04 v 5.28 c 0,4 -0.46546,5.74546 -1.92,7.2 -1.056,1.056 -2.352,1.92 -2.88,1.92 -0.528,0 -1.824,-0.864 -2.88,-1.92 z m 23.20441,-21.74879 c 2.18748,-1.97965 2.2756,-6.80542 0.1668,-9.13562 -1.26448,-1.39723 -3.02809,-1.75559 -8.64,-1.75559 H 215.04 v 6.24 6.24 h 6.88441 c 5.05883,0 7.34995,-0.42131 8.64,-1.58879 z M 344.64,794.87954 c -1.78163,-1.78163 -1.92,-3.2 -1.92,-19.68 0,-16.48 0.13837,-17.89837 1.92,-19.68 1.056,-1.056 2.352,-1.92 2.88,-1.92 0.528,0 1.824,0.864 2.88,1.92 1.78163,1.78163 1.92,3.2 1.92,19.68 0,16.48 -0.13837,17.89837 -1.92,19.68 -1.056,1.056 -2.352,1.92 -2.88,1.92 -0.528,0 -1.824,-0.864 -2.88,-1.92 z m 18.96,0.8831 c -1.48117,-0.8627 -1.68,-2.67311 -1.68,-15.29703 0,-13.60605 0.10127,-14.37272 2.03515,-15.40769 1.65556,-0.88603 2.51519,-0.73428 4.60888,0.81366 2.56966,1.89983 2.57798,1.89972 5.27457,-0.0646 3.85219,-2.80613 10.38892,-2.67025 13.53067,0.28128 3.24189,3.04558 4.29903,7.46317 4.30537,17.99128 0.005,7.60434 -0.27046,9.15582 -1.91464,10.8 -2.24309,2.24309 -2.92717,2.34103 -5.02882,0.72 -1.21363,-0.9361 -1.62344,-3.35688 -1.86348,-11.00765 -0.34657,-11.04658 -1.37521,-13.07235 -6.63787,-13.07235 -4.67694,0 -5.66983,2.18959 -5.66983,12.50349 0,7.65651 -0.27501,9.21152 -1.92,10.85651 -2.16971,2.16971 -2.6781,2.25878 -5.04,0.8831 z m 96.96,0 c -1.48117,-0.8627 -1.68,-2.67311 -1.68,-15.29703 0,-13.336 0.13175,-14.38903 1.92,-15.34607 2.33736,-1.25092 5.35728,0.0988 6.2063,2.77382 0.52894,1.66654 0.80451,1.58768 3.35117,-0.95898 3.17801,-3.17802 4.1119,-3.36832 6.21396,-1.26627 2.54027,2.54028 1.84641,5.16824 -1.76274,6.67624 -5.61687,2.34688 -7.28869,5.45365 -7.28869,13.54466 0,5.79053 -0.34759,7.41812 -1.92,8.99053 -2.16971,2.16971 -2.6781,2.25878 -5.04,0.8831 z m 64.56,-0.8831 c -1.71627,-1.71627 -1.92,-3.2 -1.92,-13.98311 0,-6.63471 0.42,-12.84789 0.93333,-13.80706 1.26057,-2.35539 3.61466,-3.13226 5.85621,-1.93261 1.70042,0.91004 1.85046,2.1524 1.85046,15.32278 0,13.18755 -0.14833,14.41183 -1.85689,15.32623 -2.47713,1.32571 -2.64271,1.29417 -4.86311,-0.92623 z m 80.64,0 c -1.71627,-1.71627 -1.92,-3.2 -1.92,-13.98311 0,-6.63471 0.42,-12.84789 0.93333,-13.80706 1.26057,-2.35539 3.61466,-3.13226 5.85621,-1.93261 1.70042,0.91004 1.85046,2.1524 1.85046,15.32278 0,13.18755 -0.14833,14.41183 -1.85689,15.32623 -2.47713,1.32571 -2.64271,1.29417 -4.86311,-0.92623 z m 57.6,0 c -1.78916,-1.78916 -1.92,-3.2 -1.92,-20.70311 0,-11.11183 0.40587,-19.54149 0.99377,-20.64 1.11085,-2.07564 4.73059,-2.46853 6.49423,-0.70489 0.82377,0.82377 1.152,6.9685 1.152,21.56623 0,19.20042 -0.11041,20.4733 -1.85689,21.408 -2.47713,1.32571 -2.64271,1.29417 -4.86311,-0.92623 z m 18.24,0 c -1.71627,-1.71627 -1.92,-3.2 -1.92,-13.98311 0,-6.63471 0.42,-12.84789 0.93333,-13.80706 1.26057,-2.35539 3.61466,-3.13226 5.85621,-1.93261 1.70042,0.91004 1.85046,2.1524 1.85046,15.32278 0,13.18755 -0.14833,14.41183 -1.85689,15.32623 -2.47713,1.32571 -2.64271,1.29417 -4.86311,-0.92623 z m 17.04,0.8831 c -1.48117,-0.8627 -1.68,-2.67311 -1.68,-15.29703 0,-13.60605 0.10127,-14.37272 2.03515,-15.40769 1.65556,-0.88603 2.51519,-0.73428 4.60888,0.81366 2.56262,1.89462 2.58493,1.89466 5.17419,0.009 3.809,-2.77466 10.56989,-2.66765 13.63926,0.21587 3.23364,3.03784 4.29083,7.46215 4.29716,17.98357 0.005,7.60435 -0.27046,9.15582 -1.91464,10.8 -2.24309,2.24309 -2.92717,2.34103 -5.02882,0.72 -1.21363,-0.93609 -1.62344,-3.35688 -1.86348,-11.00764 -0.34657,-11.04659 -1.37521,-13.07235 -6.63787,-13.07235 -4.67694,0 -5.66983,2.18959 -5.66983,12.50348 0,7.65652 -0.27501,9.21153 -1.92,10.85651 -2.16971,2.16971 -2.6781,2.25879 -5.04,0.88311 z m 72,0 c -1.48117,-0.8627 -1.68,-2.67311 -1.68,-15.29703 0,-13.336 0.13175,-14.38903 1.92,-15.34607 2.33736,-1.25092 5.35728,0.0988 6.2063,2.77382 0.52894,1.66654 0.80451,1.58768 3.35117,-0.95898 3.17801,-3.17802 4.1119,-3.36832 6.21396,-1.26627 2.54027,2.54028 1.84641,5.16824 -1.76274,6.67624 -5.61687,2.34688 -7.28869,5.45365 -7.28869,13.54466 0,5.79053 -0.34759,7.41812 -1.92,8.99053 -2.16971,2.16971 -2.6781,2.25878 -5.04,0.8831 z m 25.2,-0.8831 c -1.71627,-1.71627 -1.92,-3.2 -1.92,-13.98311 0,-6.63471 0.42,-12.84789 0.93333,-13.80706 1.26057,-2.35539 3.61466,-3.13226 5.85621,-1.93261 1.70042,0.91004 1.85046,2.1524 1.85046,15.32278 0,13.18755 -0.14833,14.41183 -1.85689,15.32623 -2.47713,1.32571 -2.64271,1.29417 -4.86311,-0.92623 z M 524.08963,758.32917 c -1.79189,-1.79189 -1.852,-2.19875 -0.60291,-4.08 1.84748,-2.78245 6.21908,-2.78245 8.06656,0 1.24909,1.88125 1.18898,2.28811 -0.60291,4.08 -1.0947,1.0947 -2.63837,1.99037 -3.43037,1.99037 -0.792,0 -2.33567,-0.89567 -3.43037,-1.99037 z m 80.71037,0.0704 c -2.38463,-2.38463 -2.39569,-3.11193 -0.0792,-5.20836 2.33637,-2.11438 5.69801,-1.63888 7.47952,1.05799 1.24061,1.87803 1.17884,2.29119 -0.60998,4.08 -2.49853,2.49853 -4.3431,2.51764 -6.79037,0.0704 z m 75.84,0 c -2.38463,-2.38463 -2.39569,-3.11193 -0.0792,-5.20836 2.33637,-2.11438 5.69801,-1.63888 7.47952,1.05799 1.24061,1.87803 1.17884,2.29119 -0.60998,4.08 -2.49853,2.49853 -4.3431,2.51764 -6.79037,0.0704 z m 114.16963,-0.0704 c -1.78881,-1.78881 -1.85059,-2.20197 -0.60998,-4.08 1.78151,-2.69687 5.14315,-3.17237 7.47952,-1.05799 2.31652,2.09643 2.30546,2.82373 -0.0792,5.20836 -2.44727,2.44727 -4.29184,2.42816 -6.79037,-0.0704 z"
       id="path22" />
  </g>
</svg>
